# xmcd CD database file
#
# Track frame offsets:
#	150
#	19479
#	33517
#	46649
#	63724
#	80667
#	98326
#	113476
#	131394
#	147537
#	163334
#	184795
#	212583
#	226240
#
# Disc length: 3290 seconds
#
# Revision: 1
# Processed by: cddbd v1.5.2PL0 Copyright (c) Steve Scherf et al.
# Submitted via: CDex 1.51
#
DISCID=bb0cd80e
DTITLE=Toby Keith - Bullets In The Gun (Deluxe Edition)
DYEAR=2010
DGENRE=Country
TTITLE0=Bullets In The Gun
TTITLE1=Somewhere Else
TTITLE2=Trailerhood
TTITLE3=In A Couple Of Days
TTITLE4=Think About You All The Time
TTITLE5=Kissin' In The Rain
TTITLE6=Drive It On Home
TTITLE7=Ain't Breakin' Nothin'
TTITLE8=Is That All You Got
TTITLE9=Get Out Of My Car
TTITLE10=11 Months And 29 Days (Live)
TTITLE11=I've Been A Long Time Leaving (But I'll Be A Long Time Gone) (Live)
TTITLE12=Chug-A-Lug (Live)
TTITLE13=Sundown (Live)
EXTD=YEAR: 2010
EXTT0=
EXTT1=
EXTT2=
EXTT3=
EXTT4=
EXTT5=
EXTT6=
EXTT7=
EXTT8=
EXTT9=
EXTT10=
EXTT11=
EXTT12=
EXTT13=
PLAYORDER=
